<mxfile host="app.diagrams.net" modified="2020-09-28T16:49:58.543Z" agent="5.0 (Windows NT 10.0; Win64; x64) AppleWebKit/537.36 (KHTML, like Gecko) Chrome/85.0.4183.121 Safari/537.36" etag="87WrLXylHg1bEQLvp9E-" version="13.7.6" type="github">
  <diagram id="QsMeTlExLclBaaOWPxCE" name="Page-1">
    <mxGraphModel dx="1038" dy="580" grid="1" gridSize="10" guides="1" tooltips="1" connect="1" arrows="1" fold="1" page="1" pageScale="1" pageWidth="850" pageHeight="1100" background="#FFFFFF" math="0" shadow="0">
      <root>
        <mxCell id="0" />
        <mxCell id="1" parent="0" />
        <mxCell id="6qLOVYZHB_uY7hUXwL-a-1" value="" style="html=1;shadow=0;dashed=0;align=center;verticalAlign=middle;shape=mxgraph.arrows2.arrow;dy=0.67;dx=20;notch=0;" vertex="1" parent="1">
          <mxGeometry x="120" y="210" width="60" height="60" as="geometry" />
        </mxCell>
        <mxCell id="6qLOVYZHB_uY7hUXwL-a-3" value="" style="html=1;shadow=0;dashed=0;align=center;verticalAlign=middle;shape=mxgraph.arrows2.arrow;dy=0.67;dx=20;notch=0;" vertex="1" parent="1">
          <mxGeometry x="310" y="210" width="60" height="60" as="geometry" />
        </mxCell>
        <mxCell id="6qLOVYZHB_uY7hUXwL-a-4" value="" style="html=1;shadow=0;dashed=0;align=center;verticalAlign=middle;shape=mxgraph.arrows2.arrow;dy=0.67;dx=20;notch=0;" vertex="1" parent="1">
          <mxGeometry x="470" y="210" width="60" height="60" as="geometry" />
        </mxCell>
        <mxCell id="6qLOVYZHB_uY7hUXwL-a-7" value="&lt;b&gt;&lt;font style=&quot;font-size: 16px&quot;&gt;BYTE CODE&lt;/font&gt;&lt;/b&gt;" style="text;html=1;strokeColor=none;fillColor=none;align=center;verticalAlign=middle;whiteSpace=wrap;rounded=0;" vertex="1" parent="1">
          <mxGeometry x="60" y="230" width="40" height="20" as="geometry" />
        </mxCell>
        <mxCell id="6qLOVYZHB_uY7hUXwL-a-9" value="&lt;b&gt;&lt;font style=&quot;font-size: 16px&quot;&gt;INTERPRETER&lt;/font&gt;&lt;/b&gt;" style="text;html=1;strokeColor=none;fillColor=none;align=center;verticalAlign=middle;whiteSpace=wrap;rounded=0;" vertex="1" parent="1">
          <mxGeometry x="230" y="230" width="40" height="20" as="geometry" />
        </mxCell>
        <mxCell id="6qLOVYZHB_uY7hUXwL-a-10" value="&lt;b&gt;&lt;font style=&quot;font-size: 16px&quot;&gt;MACHINE CODE&lt;/font&gt;&lt;/b&gt;" style="text;html=1;strokeColor=none;fillColor=none;align=center;verticalAlign=middle;whiteSpace=wrap;rounded=0;" vertex="1" parent="1">
          <mxGeometry x="400" y="230" width="40" height="20" as="geometry" />
        </mxCell>
        <mxCell id="6qLOVYZHB_uY7hUXwL-a-11" value="&lt;b&gt;&lt;font style=&quot;font-size: 16px&quot;&gt;EXECUTE THE MACHINE CODE&lt;/font&gt;&lt;/b&gt;" style="text;html=1;strokeColor=none;fillColor=none;align=center;verticalAlign=middle;whiteSpace=wrap;rounded=0;" vertex="1" parent="1">
          <mxGeometry x="560" y="230" width="40" height="20" as="geometry" />
        </mxCell>
      </root>
    </mxGraphModel>
  </diagram>
</mxfile>
